HIERARCHY
ROOT Hips
{
	OFFSET 0.0000 0.0000 0.0000
	CHANNELS 6 Xposition Yposition Zposition Zrotation Xrotation Yrotation
	JOINT Ab
	{
		OFFSET -0.0000 8.0846 -0.0000
		CHANNELS 3 Zrotation Xrotation Yrotation
		JOINT Chest
		{
			OFFSET -0.0000 25.0068 -0.0000
			CHANNELS 3 Zrotation Xrotation Yrotation
			JOINT Neck
			{
				OFFSET -0.0000 25.0068 0.0000
				CHANNELS 3 Zrotation Xrotation Yrotation
				JOINT Head
				{
					OFFSET -0.0000 10.7556 0.0000
					CHANNELS 3 Zrotation Xrotation Yrotation
					End Site
					{
						OFFSET -0.0000 16.6222 0.0000
					}
				}
			}
			JOINT LeftCollar
			{
				OFFSET -0.0000 25.0068 0.0000
				CHANNELS 3 Zrotation Xrotation Yrotation
				JOINT LeftShoulder
				{
					OFFSET 19.5556 -0.0000 0.0000
					CHANNELS 3 Zrotation Xrotation Yrotation
					JOINT LeftElbow
					{
						OFFSET 27.1828 0.0000 0.0000
						CHANNELS 3 Zrotation Xrotation Yrotation
						JOINT LeftWrist
						{
							OFFSET 23.3157 0.0000 0.0000
							CHANNELS 3 Zrotation Xrotation Yrotation
							End Site
							{
								OFFSET 0.0000 -14.6667 0.0000
							}
						}
					}
				}
			}
			JOINT RightCollar
			{
				OFFSET -0.0000 25.0068 0.0000
				CHANNELS 3 Zrotation Xrotation Yrotation
				JOINT RightShoulder
				{
					OFFSET -19.5556 0.0000 0.0000
					CHANNELS 3 Zrotation Xrotation Yrotation
					JOINT RightElbow
					{
						OFFSET -27.1828 0.0000 0.0000
						CHANNELS 3 Zrotation Xrotation Yrotation
						JOINT RightWrist
						{
							OFFSET -23.3157 0.0000 0.0000
							CHANNELS 3 Zrotation Xrotation Yrotation
							End Site
							{
								OFFSET -0.0000 -14.6667 0.0000
							}
						}
					}
				}
			}
		}
	}
	JOINT LeftHip
	{
		OFFSET 11.7333 0.0000 0.0000
		CHANNELS 3 Zrotation Xrotation Yrotation
		JOINT LeftKnee
		{
			OFFSET -0.0000 -40.8688 0.0000
			CHANNELS 3 Zrotation Xrotation Yrotation
			JOINT LeftAnkle
			{
				OFFSET -0.0000 -44.4337 0.0000
				CHANNELS 3 Zrotation Xrotation Yrotation
				End Site
				{
					OFFSET -0.0000 -4.8889 16.6222
				}
			}
		}
	}
	JOINT RightHip
	{
		OFFSET -11.7333 0.0000 0.0000
		CHANNELS 3 Zrotation Xrotation Yrotation
		JOINT RightKnee
		{
			OFFSET -0.0000 -40.8688 0.0000
			CHANNELS 3 Zrotation Xrotation Yrotation
			JOINT RightAnkle
			{
				OFFSET -0.0000 -44.4337 0.0000
				CHANNELS 3 Zrotation Xrotation Yrotation
				End Site
				{
					OFFSET -0.0000 -4.8889 16.6222
				}
			}
		}
	}
}
MOTION
Frames: 8
Frame Time: 0.010000
-8.7978 87.3704 78.8633 3.3393 0.5720 174.6659 359.2076 4.1821 357.0200 2.0154 13.1771 356.7550 4.4069 355.3127 1.3279 355.8342 22.2159 1.9648 339.6126 359.1217 4.9843 305.2866 28.5866 348.5363 14.3311 355.1598 322.9293 82.8892 0.4793 337.4517 21.2598 358.8818 354.2079 63.0956 37.8743 4.2985 340.5032 354.7146 30.0539 278.7972 353.0281 23.7669 359.3256 4.4293 357.0010 357.8181 8.6041 357.0592 1.1238 350.2397 22.1619 1.3784 334.8320 5.1168 0.7223 21.4271 1.4658 359.0041 354.4344 338.6193 
-8.7189 87.3204 78.5593 3.2689 0.5354 174.8387 359.1853 4.1700 356.9968 2.0581 13.2614 356.7257 4.4386 355.3004 1.2701 355.8494 22.2025 1.8992 339.5774 359.0963 4.9839 305.2884 28.7550 348.5621 14.3542 355.1344 322.9228 82.9234 0.4919 337.3563 21.2474 358.8978 354.1623 63.1881 37.7097 4.1529 340.6466 354.7734 29.9902 278.9537 353.0623 23.8894 359.3159 4.5119 357.0702 357.8146 8.7199 357.0684 1.1403 350.0023 21.9755 1.3208 334.6468 5.2977 0.7582 20.8827 1.1986 359.3005 354.2618 338.6512 
-8.6306 87.2750 78.2441 3.1927 0.5282 174.9765 359.1357 4.1852 357.0071 2.1041 13.3430 356.7263 4.4765 355.2908 1.2149 355.8721 22.1902 1.8373 339.5779 359.1129 4.9398 305.2003 28.6064 348.6514 14.2048 355.2051 322.8603 82.8949 0.5895 337.2013 21.2236 358.8995 354.1414 63.3116 37.5877 4.0034 340.7536 354.8213 29.9265 278.9601 353.1790 23.8719 359.3066 4.7474 357.2185 357.8127 8.6329 356.9161 0.8794 349.8513 21.8222 1.2720 334.4962 5.4799 0.7449 20.4702 0.9387 0.0174 353.8171 339.8224 
-8.5419 87.2292 77.9278 3.1135 0.5391 175.1708 359.1090 4.2484 356.9979 2.1377 13.3850 356.7108 4.5080 355.2811 1.1260 355.9345 22.1730 1.7333 339.5564 359.1276 4.8832 305.1783 28.5859 348.7231 14.1239 355.2284 322.7878 82.8755 0.6196 337.1206 21.2005 358.8988 354.0869 63.4585 37.4447 3.8500 340.8547 354.8553 29.8180 278.9728 353.1686 23.8318 359.2941 4.9680 357.2407 357.8107 8.5918 356.8064 0.8203 349.6971 21.7748 1.1883 334.3804 5.6274 0.7502 20.1369 0.8298 359.5050 354.2809 339.1244 
-8.4508 87.1809 77.6016 3.0375 0.5861 175.4038 359.0034 4.2789 357.0434 2.2897 13.5692 356.7292 4.5899 355.1698 0.9711 355.9055 22.1820 1.5711 339.5011 359.1103 4.8110 305.2441 28.7962 348.6833 14.2020 355.1655 322.7416 82.7315 0.5832 337.1941 21.1053 358.8860 353.9701 63.6149 37.3117 3.7929 340.8563 354.8663 29.7068 279.0361 353.1059 23.7848 359.2944 5.2179 356.9273 357.7485 8.5544 356.9488 0.7642 349.5530 21.7308 1.0742 334.3211 5.6649 0.7860 19.8208 0.5947 359.6075 354.1481 339.3693 
-8.3525 87.1310 77.2756 2.9430 0.5572 175.5888 358.9794 4.3001 357.0427 2.3079 13.6165 356.7246 4.7042 355.1224 0.8734 355.8480 22.2302 1.4837 339.4823 359.1250 4.7591 305.2664 28.8377 348.7455 14.1173 355.2117 322.6751 82.8252 0.5453 337.2302 21.0955 358.8813 353.8937 63.7802 37.1241 3.6276 340.9416 354.9275 29.6355 279.1010 353.1473 23.8028 359.2701 5.3674 356.8586 357.7270 8.5878 356.9472 0.5266 349.3216 21.5699 0.9814 334.1630 5.6229 0.7863 19.6449 0.3527 0.5446 353.4431 340.6389 
-8.2513 87.0735 76.9462 2.8441 0.4777 175.8429 358.9691 4.2820 356.9914 2.3424 13.6440 356.6680 4.6229 355.0560 0.8001 356.0889 22.3102 1.3694 339.3938 359.0838 5.0561 305.6294 29.9605 348.3965 14.7078 354.8984 322.9648 82.5408 0.4426 337.8247 21.0614 358.8502 353.8424 63.9539 37.0627 3.4562 340.8910 354.9291 29.5923 279.2986 353.2896 23.7024 359.2365 5.4087 356.9072 357.7709 8.7250 356.7580 0.3371 349.0157 21.4681 0.8507 333.9665 5.4313 0.7209 19.4793 0.6593 359.3862 354.0647 339.3126 
-8.1397 87.0181 76.6041 2.7361 0.4074 176.0503 358.9428 4.2481 356.9980 2.3625 13.6974 356.6704 4.6432 355.0655 0.7299 356.1333 22.2583 1.2861 339.3378 359.0775 5.1792 305.8075 30.4277 348.2771 14.9230 354.8535 323.0656 82.5003 0.3285 338.1883 21.0309 358.8409 353.7975 64.1020 36.9660 3.3173 340.9508 354.9546 29.4738 279.3187 353.3204 23.7432 359.2040 5.4746 357.0903 357.8116 8.8749 356.4451 0.4012 348.7543 21.4877 0.7443 333.8102 5.3410 0.6963 19.3619 0.6927 359.0902 354.0385 339.2176 
